<svg width="22" height="22" viewBox="0 0 82 82" fill="none" xmlns="http://www.w3.org/2000/svg">
<path d="M73.8193 47.7574C73.8193 58.7212 66.0243 68.536 59.8104 75.1193C54.7962 80.4351 49.3042 75.87 41.2585 75.87C33.0586 75.87 27.3632 80.308 22.31 74.8058C16.269 68.2276 8.62485 58.5483 8.62485 47.7574C8.56856 39.2098 11.4033 30.8942 16.6689 24.1608C22.6422 16.6302 31.4301 23.3559 41.2263 23.3559C50.9293 23.3559 59.6443 16.5404 65.6142 23.9507C70.9847 30.718 73.8799 39.1182 73.8193 47.7574Z" fill="#D91919" stroke="#373737" stroke-width="1.69455" stroke-miterlimit="10"/>
<path d="M41.7547 22.9001H39.4552C39.4552 22.9001 37.171 9.00477 34.9138 4.3295C34.4614 3.38903 38.8689 3.16026 38.8689 3.16026C40.372 8.33881 41.7547 22.9001 41.7547 22.9001Z" fill="#D0703A" stroke="#283483" stroke-width="1.69455" stroke-miterlimit="10"/>
<path d="M63.5403 8.02867C67.6072 9.79439 67.675 11.9651 59.7411 16.0507C55.3081 18.3332 46.0678 18.8179 41.7551 17.6419C44.2149 13.6648 47.6499 10.3821 51.7343 8.10493C53.5802 7.24125 55.5911 6.78725 57.6289 6.77408C59.6668 6.76092 61.6834 7.18891 63.5403 8.02867Z" fill="#58D32D" stroke="#283483" stroke-width="1.69455" stroke-miterlimit="10"/>
</svg>
